<?xml version="1.0" encoding="iso-8859-1"?>
<!-- Generator: Adobe Illustrator 19.0.0, SVG Export Plug-In . SVG Version: 6.00 Build 0)  -->
<svg version="1.1" id="Layer_1" xmlns="http://www.w3.org/2000/svg" xmlns:xlink="http://www.w3.org/1999/xlink" x="0px" y="0px"
	 viewBox="0 0 512.004 512.004" style="enable-background:new 0 0 512.004 512.004;" xml:space="preserve">
<circle style="fill:#FFC200;" cx="256" cy="256.002" r="256"/>
<path style="fill:#F2B800;" d="M256,0.002c-6.744,0-13.4,0.34-20,0.852C368.032,11.07,472,121.35,472,256.002
	S368.032,500.934,236,511.15c6.6,0.512,13.256,0.852,20,0.852c141.392,0,256-114.608,256-256S397.392,0.002,256,0.002z"/>
<g>
	<path style="fill:#263740;" d="M204,136.002c-6.624,0-12,5.376-12,12c0,19.852-16.148,36-36,36s-36-16.148-36-36
		c0-6.624-5.376-12-12-12s-12,5.376-12,12c0,33.084,26.916,60,60,60s60-26.916,60-60C216,141.378,210.624,136.002,204,136.002z"/>
	<path style="fill:#263740;" d="M404,136.002c-6.624,0-12,5.376-12,12c0,19.852-16.148,36-36,36s-36-16.148-36-36
		c0-6.624-5.376-12-12-12s-12,5.376-12,12c0,33.084,26.916,60,60,60s60-26.916,60-60C416,141.378,410.624,136.002,404,136.002z"/>
</g>
<path style="fill:#F2B800;" d="M116,368.002c-11.028,0-20-8.972-20-20s8.972-20,20-20h280c11.028,0,20,8.972,20,20s-8.972,20-20,20
	H116z"/>
<path style="fill:#F5F5F5;" d="M396,360.002H116c-6.628,0-12-5.376-12-12s5.372-12,12-12h280c6.628,0,12,5.376,12,12
	S402.628,360.002,396,360.002z"/>
<g>
	<path style="fill:#263740;" d="M452,512.002h-96c-4.752,0-9.056-2.8-10.972-7.144s-1.096-9.416,2.088-12.92l61.76-67.936H376
		c-6.628,0-12-5.372-12-12s5.372-12,12-12h60c4.752,0,9.056,2.8,10.972,7.144s1.096,9.416-2.088,12.92l-61.76,67.936H452
		c6.628,0,12,5.372,12,12S458.628,512.002,452,512.002z"/>
	<path style="fill:#263740;" d="M504,464.002h-36c-3.236,0-6.152-1.948-7.392-4.936c-1.244-2.992-0.556-6.424,1.736-8.72
		l22.344-22.344H480c-4.416,0-8-3.584-8-8s3.584-8,8-8h24c3.236,0,6.152,1.948,7.392,4.936c1.244,2.992,0.556,6.424-1.736,8.72
		l-22.344,22.344H504c4.416,0,8,3.584,8,8S508.416,464.002,504,464.002z"/>
</g>
<g>
</g>
<g>
</g>
<g>
</g>
<g>
</g>
<g>
</g>
<g>
</g>
<g>
</g>
<g>
</g>
<g>
</g>
<g>
</g>
<g>
</g>
<g>
</g>
<g>
</g>
<g>
</g>
<g>
</g>
</svg>
